<svg width="68" height="16" viewBox="0 0 68 16" fill="none" xmlns="http://www.w3.org/2000/svg">
<path d="M27.2491 3.68976H29.8354V15.7022H27.2491V3.68976ZM9.5595 3.82213H12.1458V15.7187H9.5595V14.6598C7.4374 16.1986 4.56926 16.1986 2.46375 14.6598C-0.222023 12.6908 -0.802282 8.93485 1.1706 6.27094C3.1269 3.59049 6.8903 3.01137 9.5595 4.96381V3.82213ZM9.54292 9.81179C9.54292 7.85936 7.96793 6.28749 6.01162 6.28749C4.05532 6.28749 2.48033 7.85936 2.48033 9.81179C2.48033 11.7642 4.05532 13.3361 6.01162 13.3361C7.96793 13.3361 9.54292 11.7642 9.54292 9.81179ZM40.5951 0H43.1814V15.7022H40.5951V14.6432C38.473 16.182 35.6049 16.182 33.4828 14.6432C30.797 12.6908 30.2167 8.93485 32.1896 6.2544C34.1459 3.57394 37.9093 2.99483 40.5951 4.96381V0ZM40.5785 9.81179C40.5785 7.85936 39.0035 6.28749 37.0472 6.28749C35.0909 6.28749 33.5159 7.85936 33.5159 9.81179C33.5159 11.7642 35.0909 13.3361 37.0472 13.3361C39.0035 13.3361 40.5785 11.7642 40.5785 9.81179ZM22.806 0H25.3923V15.7022H22.806V14.6432C21.7781 15.4043 20.5347 15.8014 19.2581 15.8014C17.9816 15.8014 16.7216 15.3878 15.6937 14.6432C13.0079 12.6908 12.4276 8.93485 14.4005 6.2544C16.3734 3.57394 20.1202 2.99483 22.806 4.96381V0ZM22.7894 9.81179C22.7894 7.85936 21.2144 6.28749 19.2581 6.28749C17.3018 6.28749 15.7268 7.85936 15.7268 9.81179C15.7268 11.7642 17.3018 13.3361 19.2581 13.3361C21.2144 13.3361 22.7894 11.7642 22.7894 9.81179ZM27.2491 2.97828H29.8354V0H27.2491V2.97828ZM54.0074 3.82213H56.5937V15.7187H54.0074V14.6598C51.8853 16.1986 49.0172 16.1986 46.9116 14.6598C44.2259 12.7073 43.6456 8.9514 45.6185 6.27094C47.5748 3.59049 51.3382 3.01138 54.024 4.98035V3.82213H54.0074ZM54.0074 9.81179C54.0074 7.85936 52.4324 6.28749 50.4761 6.28749C48.5198 6.28749 46.9448 7.85936 46.9448 9.81179C46.9448 11.7642 48.5198 13.3361 50.4761 13.3361C52.4158 13.3361 54.0074 11.7642 54.0074 9.81179ZM63.2252 8.45502C62.6947 8.40538 60.5063 8.32265 60.5063 7.03206C60.5063 6.17167 61.9487 5.94002 62.6118 5.94002C63.8884 5.94002 64.6676 6.66805 64.8334 7.62772L67.4363 7.61117C67.3699 5.29473 65.3639 3.7394 62.6781 3.75595C59.4784 3.77249 57.8537 5.41055 57.8537 7.49535C57.8537 8.67011 58.5003 9.33195 59.2297 9.94416C59.926 10.5067 61.5342 10.788 62.4129 10.8873C63.9215 11.0693 64.9826 11.3009 64.9826 12.4261C64.9826 13.1541 63.9713 13.7663 62.5289 13.7663C61.7331 13.7663 60.3405 13.2368 60.2079 11.9297H57.6216C57.92 14.7425 60.2576 16 62.5455 16C63.5734 16 65.2644 15.7684 66.0934 15.1727C67.0549 14.4778 67.7347 13.4685 67.7347 12.1282C67.7347 10.2916 66.7234 8.75284 63.2252 8.45502Z" fill="#707070"/>
</svg>
