<svg xmlns="http://www.w3.org/2000/svg" viewBox="0 0 570 100"><path fill="#707070" d="M393.43 7.06l-46.15.52v12.44h12.96v76.74h18.67V20.02h14.52V7.06zM284.54 53.72L267.43 7.57h-18.15v89.19h14.52V45.94l19.7 50.81h15.56V7.57h-14.52v46.15zM418.83 1.87c-14.86.19-26.97 21.33-26.96 47.19-.01 26.29 12.1 47.42 26.96 47.19 15 .23 27.11-20.9 26.96-47.19.15-25.86-11.95-47-26.96-47.19zm0 77.78c-6.01-.13-10.93-13.67-10.89-30.59-.04-16.49 4.87-30.04 10.89-30.07 6.14.03 11.06 13.59 10.89 30.07.17 16.92-4.74 30.46-10.89 30.59zm-221.4 17.11h40.44V78.09h-21.78v-25.4h21.78V41.28h-21.78V24.17h21.78V7.57h-40.44v89.19zM172.02 7.57l-10.89 29.04V7.57h-19.19v89.19h19.19V56.32l9.85 40.44h19.19l-18.15-50.81 18.67-38.37h-18.67zm351.03 0l-11.41 29.04V7.57h-18.67v89.19h18.67V56.32l9.85 40.44h19.7l-18.15-50.81L541.2 7.57h-18.15zm-466.14 0h18.67v89.19H56.91V7.57zm75.7 24.89c-.52-21.1-13.48-25.32-25.41-24.89H84.9v89.19h17.11V53.72l16.07 43.04h17.1l-15.56-41.48c8.26-3.74 12.79-11.19 12.99-22.82zm-30.59 13.48V21.57c6.74-.17 14.2.8 14 11.41.19 10.79-4.67 13.37-14 12.96zM30.98 7.57H3.5v89.19h30.07c8.75-.17 16.2-6.33 16.07-11.93V58.91c.13-7.69-7-8.02-8.81-7.78-1.43-.24-1.43-1.86.52-2.07 5.5-.43 8.43-3.35 8.3-9.33V24.69c.13-10.42-9.27-17.23-18.67-17.12zm2.59 67.93c0 1.97-1.3 4.4-4.15 4.15h-8.3V57.87h6.74c4.24.16 5.7 2.1 5.7 4.15V75.5zm0-37.33c0 2.19-1.3 4.62-4.15 4.67h-8.3V24.17h6.74c4.24.16 5.7 2.09 5.7 4.15v9.85h.01zm448-32.15c-16.83-.18-30.38 20.14-30.59 45.11.22 25.14 13.77 45.46 30.59 45.63.86-.17 1.84-.24 2.59-.52V80.17c-.78.53-1.66.88-2.59 1.04-8.23-.2-14.79-13.53-15.04-30.07.24-16.37 6.81-29.71 15.04-29.56.9-.14 1.82.04 2.59.52V6.02c-.85-.14-1.73-.14-2.59 0zM342.61 51.65c-7.97-6.59-12.19-8.53-15.04-11.93-2.98-3.09-5.25-7.95-3.11-13.48 1.75-5.49 10.18-9.05 21.78 0V9.65a35.062 35.062 0 0 0-16.59-3.63c-3.76-.17-14.45.48-20.22 12.96-5.9 12.14-2.33 28.67 6.74 34.74 9.07 6.25 17.82 10.46 17.63 16.59.19 6.18-3.37 10.72-10.37 11.41-6.61.6-11.8-3.28-14-5.7v17.11c5.76 3.79 12.57 4.75 17.63 4.15 4.67-.69 15.37-1.99 21.26-14.52 5.77-12.75 2.53-24.73-5.71-31.11zm215.45 46.48a8.18 8.18 0 0 0 8.43-7.93 8.18 8.18 0 0 0-7.93-8.43c-.18-.01-.35-.01-.53 0-4.52.15-8.05 3.94-7.9 8.46.15 4.3 3.62 7.76 7.93 7.9zm0-1.09c-3.99 0-6.91-3.11-6.91-7.13 0-3.98 2.91-7.09 6.91-7.09 3.98 0 6.87 3.11 6.87 7.09 0 4.02-2.89 7.13-6.87 7.13zm1.33-6.76c1.62-.04 2.88-.72 2.88-2.51 0-1.51-.82-2.42-3.24-2.42h-3.99v9.14h1.12v-4.22h2.05l2.62 4.21h1.34l-2.78-4.2zm-3.25-.88v-3.24h2.61c1.12 0 2.29.17 2.29 1.6 0 1.86-1.9 1.64-3.2 1.64h-1.7z"/></svg>