<svg xmlns="http://www.w3.org/2000/svg" viewBox="0 0 369.2 100"><path fill="#707070" d="M365.2 75.6c-2.6 11.4-9.9 14.2-14.1 17.1-2.1 1.4-21.8 9-45.4 1.2-4.9-1.6-10.5-3.5-10.5-3.5V64.7s2.6.1 3.6.1c1.6 4.1 3 9.1 6.5 14 8 11.6 19.4 15.2 31.9 12.5 5-1.1 10.4-4.6 11.8-9.7 1.8-5.8 1.2-15.4-16.3-21.9-12.7-5.8-28.6-8.2-36.2-22.3-3-7.9-2.1-21.7 7.7-28.3 9.7-6.7 19.3-8.2 30.7-6.7 11.5 1.6 14.6 3.2 21.3 6 .1 6.9 0 21.1 0 21.1l-3.3.1c-2-8.9-6.3-16.5-13.6-20-7.1-3.4-17.7-5.1-24.7 1-4.1 3.6-4.7 7.4-3.2 11.5 2.5 6.2 9.4 8.1 14.7 10.5 4.4 1.7 13.7 4.8 13.7 4.8 10.4 3.6 21.9 10.7 25.1 22.4 1.5 4.9 1.5 10.6.3 15.8zM89.2 65c1.1 9.4-2.3 17.6-10 23.5-7.8 5.8-19.3 7.7-25.5 7.7H3.2v-4c6.5.1 7.3.1 7.3-2.5-.1-9.7 0-77.7 0-79.5 0-2.1-1-2.2-7.3-2.2-.1-1.6.1-4 .1-4h57.5c9.8.6 16.2 5.8 16.8 6.5 5.1 4.7 6.6 11.7 5.3 18.5-1.6 11.4-15.7 16.1-15.7 16.1C79 46.6 87.9 55.4 89.2 65zM32.9 44.3H46s1.1-.1 1.8-.3c7.6-.7 12.5-9.8 13-16.5.8-7.2-3.6-19-14.6-19.3-3.2-.1-13.3 0-13.3 0v36.1zm32.9 23.1c-.5-7.3-6-17.5-18.4-18.9H32.9v43.2h11.8s6.7.5 12.7-4.4c6-4.8 9-11.8 8.4-19.9zM195.4 66c-4.4 13.1-13.2 21.3-23.3 26.6-13.3 7.2-32.2 8.3-45.5.4-8.2-4.9-29.1-17.8-26.3-48.5.6-6.6 3.9-23.1 22.3-35.5 12.6-8.2 30.7-10.6 47.6-2.8C196.5 18.3 202.1 48 195.4 66zm-22.3-28.9c-2.1-12-5.3-20.4-11.6-26-7.1-6.2-17.2-5.7-22.6-2.1-6.3 4.2-10.7 13.8-12.8 21.8-3.3 12.1-2.7 26.4.7 41.1 3.4 14.7 12.9 19.8 18.5 21.1 10.5 2.4 17.4-3.7 21.1-9.4 7.2-10.9 9-33.5 6.7-46.5zm83.2.1s-9.4-3-13.7-4.8c-5.3-2.4-12.2-4.3-14.7-10.5-1.4-4.2-.9-7.9 3.2-11.5 7-6.1 17.6-4.4 24.7-1 7.3 3.5 11.6 11.2 13.6 20l3.3-.1s.1-14.2 0-21.1c-6.8-2.9-9.8-4.4-21.2-6-11.5-1.5-21.1 0-30.9 6.7-9.7 6.7-10.6 20.4-7.6 28.3 7.5 14.1 23.5 16.5 36.2 22.3 17.5 6.5 18.1 16.1 16.3 21.9-1.4 5.2-6.9 8.6-11.8 9.7-12.5 2.7-23.8-.9-31.9-12.5-3.4-5-4.9-9.9-6.5-14-1 0-3.6-.1-3.6-.1v25.7s5.6 1.9 10.5 3.5c23.7 7.7 43.3.2 45.4-1.2 4.2-2.9 11.5-5.6 14.1-17.1 1.1-5.1 1.1-10.9-.3-15.9-3.2-11.6-14.7-18.7-25.1-22.3z"/></svg>