<svg xmlns="http://www.w3.org/2000/svg" viewBox="0 0 1000 100"><path fill="#707070" d="M642.94 2.484l-31.17 90.12h-5.8v1.88h16.11v-1.88h-8.09l9.32-27.31h29.53l9.08 27.31h-11.07v1.88h56.84v-1.88h-10.9v-43.65h7.97c10.95 0 16.7 4.47 16.7 15.41v7.68c0 18.09 11.65 22.44 17.87 22.44h23.32v-1.88h-7.68v-78.05l29.53 80.86 28.01-83.5v80.69h-7.03v1.88h38.56v-1.88h-8.09l9.32-27.31h29.59l9.02 27.31h-11.07v1.88h43.07v-1.88h-7.09v-81.45l54.96 86.37V8.284h16.58v84.32h-7.09v1.88h24.26v-1.88h-7.03V8.284h7.03v-1.88h-42.66v1.88h7.09v66.68l-43.36-68.56h-18.69v1.88h7.03v84.32h-11.78l-30.18-90.12-31.17 90.12h-11.13V8.284h6.45v-1.88h-16.82l-23.97 70.37-25.14-70.37h-17.05v1.88h7.03v84.32H740.2c-4.45 0-8.09-3.96-8.09-10.2v-13.07c0-10.8-3.78-19.43-15.82-21.27 10.02-1.36 17.34-10.35 17.34-19.98 0-12.25-9.06-21.68-27.13-21.68h-26.9v1.88h7.03v84.32h-13.48l-30.21-90.12zm-391.76 1.81c-23.03 0-38.15 25.6-38.15 46.17 0 22.45 16.36 46.11 38.15 46.11s38.15-22.22 38.15-46.11c-.01-20.57-16.36-46.17-38.15-46.17zm173.56 0c-23.03 0-38.15 25.6-38.15 46.17 0 22.45 16.36 46.11 38.15 46.11s38.15-22.22 38.15-46.11c-.01-20.57-16.36-46.17-38.15-46.17zm-173.56 1.88c22.95 0 24.67 30.63 24.67 44.3 0 13.67-1.31 44.36-24.67 44.36-23.41 0-24.55-30.58-24.55-44.36 0-13.67 1.55-44.3 24.55-44.3zm173.56 0c22.95 0 24.67 30.63 24.67 44.3 0 13.67-1.31 44.36-24.67 44.36-23.41 0-24.55-30.58-24.55-44.36-.01-13.67 1.55-44.3 24.55-44.3zM2.5 6.404v1.88h7.68v84.32H2.5v1.88h58.89v-25.37h-1.7c0 13.1-3.25 23.5-24.84 23.5H20.32v-41.66h6.27c9.68 0 14.3 4.99 14.3 13.48h1.7v-28.83h-1.7c0 8.61-4.61 13.48-14.3 13.48h-6.27V8.304H41c14.95 0 18.69 8.6 18.69 20.98h1.7V6.434L2.5 6.404zm63.93 0v1.88h7.03v84.32h-7.03v1.88h16.58v-1.88h-7.68v-78.05l29.53 80.86 28.01-83.5v80.69h-7.09v1.88h51.15v-1.88h-7.03v-34.63h7.62c20.13 0 29.88-11.21 29.88-25.55 0-13.84-8.59-26.02-29.88-26.02h-44.94l-23.91 70.37-25.14-70.37h-17.1zm226.23 0v1.88h7.03v84.32h-7.03v1.88h28.01v-1.88h-10.84v-43.65h7.97c10.95 0 16.7 4.33 16.7 15.41v7.68c0 18.36 11.64 22.44 17.87 22.44h30.94v-1.88h-7.03V8.284h7.03v-1.88h-24.2v1.88h7.03v84.32h-12.89c-4.45 0-8.14-3.96-8.14-10.2v-13.07c0-10.81-3.78-19.43-15.82-21.27 10.02-1.36 17.4-10.35 17.4-19.98 0-12.25-9.12-21.68-27.19-21.68h-26.84zm238.6 0c-.41 0-.63.27-.82.59-.15.25-2.98 4.39-2.93 9.79v.29h26.37c.58-2.17 2.2-2.11 4.69-2.11h6.21c-.54-5.26-6.49-8.55-8.97-8.55h-24.55zm-79.45.06c-.11.59-.18 1.1-.18 1.64 0 5.9 6.33 8.97 6.33 8.97h46.88l-8.91-10.61h-44.12zm138.98 0l-8.85 10.61h46.88s6.27-3.07 6.27-8.97c0-.54-.06-1.05-.18-1.64h-44.12zm-447.78 1.82h16.64v84.32h-16.64V8.284zm26.9 0h5.16c12.75 0 20.68 6.54 20.68 24.14 0 15.88-6.09 23.67-20.68 23.67h-5.16V8.284zm139.92 0h6.74c11.14 0 18.57 7.23 18.57 20.33 0 7.23-5.62 18.46-17.34 18.46h-7.97V8.284zm386.96 0h6.74c11.14 0 18.63 7.23 18.63 20.33 0 7.23-5.67 18.46-17.4 18.46h-7.97V8.284zm-58.48 13l13.95 42.13h-28.3l14.35-42.13zm222.02 0l13.89 42.13h-28.3l14.41-42.13zm-332.82.59l-.41 10.66h27.95l-2.99-10.66h-24.55zm-62.7.06c-.11.59-.18 1.15-.18 1.7 0 5.89 6.27 8.91 6.27 8.91h46.88l-8.91-10.61h-44.06zm113.03 0l-8.91 10.61h46.93s6.27-3.01 6.27-8.91c0-.55-.06-1.11-.18-1.7h-44.11zm-100.08 15.47c-.12.59-.18 1.16-.18 1.7 0 5.9 6.27 8.91 6.27 8.91h119.06s6.27-3.01 6.27-8.91c0-.54-.06-1.11-.18-1.7h-44.12l-4.22 5.04-4.22-5.04h-29.59l-.76 5.04-4.28-5.04h-44.05zm12.95 15.47c-.11.58-.18 1.16-.18 1.7 0 5.9 6.27 8.91 6.27 8.91h21.97c2.18-4.21 6.08-7.68 11.48-7.68 1.85 0 3.04.65 3.93 1.11.52.27.93.47 1.29.47.99 0 1.42-.34 1.58-1.29l.06-.18h1.17v7.56h13.36c1.63-4.65 2.87-8.14 2.87-8.14l.12-.41s1.28 3.71 2.93 8.55h32.34s6.33-3.01 6.33-8.91c0-.54-.06-1.12-.18-1.7l-105.34.01zm39.55 4.33c-4.3 0-6.34 2.93-7.32 6.27h13.71c-1.12-4.34-3.86-6.27-6.39-6.27zm-26.6 11.14c-.12.59-.18 1.15-.18 1.7 0 5.89 6.33 8.97 6.33 8.97h8.61c-1.1-2.42-1.7-5.04-1.7-7.32 0-1.06.11-2.2.35-3.34h-13.41zm18.46 0c-.09 1.34-.12 2.53-.12 3.34 0 2.86.21 5.32.64 7.32h12.77v-3.93h-2.75v-1.41h9.26v1.41h-2.34v3.93h6.62l3.75-10.66h-27.83zm29.24 0l-2.29 6.74h7.91l-2.23-6.74h-3.39zm7.85 0c1.26 3.69 2.58 7.57 3.63 10.66h14.12s6.33-3.07 6.33-8.97c0-.55-.06-1.11-.18-1.7h-23.9v.01zm-10.61 8.08l-.88 2.58h10.61l-.88-2.58h-8.85zm-31.99 7.44c-.11.59-.12 1.16-.12 1.7 0 5.89 6.27 8.91 6.27 8.91h41.25s6.27-3.01 6.27-8.91c0-.54-.06-1.11-.18-1.7h-5.63c.33.97.52 1.5.53 1.52h3.34v1.41h-11.43v-1.41h3.57c-.03-.1-.24-.67-.53-1.52H546c-.3.85-.55 1.43-.59 1.52h2.58v1.41h-6.21v-1.41h2.11c.01-.03.25-.56.59-1.52h-4.92v2.93h-1.35l-.06-.12c-.1-1.03-.6-1.7-1.29-1.7-1.08 0-1.74.45-2.52 1-1.05.72-2.25 1.52-4.69 1.52-3.21 0-5.92-1.45-8.03-3.63h-5.01zm8.15 0c1.23 1.56 2.84 2.29 4.92 2.29 2.05 0 3.65-.93 4.63-2.29h-9.55z"/></svg>