<svg xmlns="http://www.w3.org/2000/svg" viewBox="0 0 506 100"><path fill="#707070" d="M336.99 43.1c-18-5.77-25.83-10.86-24.48-19.24 1.29-8.31 10.3-7.81 19.05-7.13 8.65.72 15.7 2.65 20.84 4.33.09.07.4-.02.46-.31.46-3.04 2.11-11.11 2.56-13.87.07-.34-.26-.51-.43-.55-10.53-2.85-20.14-4.66-31.64-4.45-21.53.37-31.54 9.04-32.76 27.15-.72 10.57 6.6 22.25 21.81 27.28s26.06 7.88 24.48 17.25c-1.39 7.94-10.76 8.84-20.91 8.26-8.89-.54-16.41-2.66-22.02-4.36-.4-.12-.65.08-.74.45-.42 3.26-1.6 11.59-2 14.53-.02.39.32.71.49.75 7.02 1.68 19.44 4.04 34.72 4.04 20.66 0 31.38-8.86 32.58-25.82.92-13.19-5.28-22.92-22.01-28.31zm-93.18 0c-18.01-5.77-25.82-10.86-24.48-19.24 1.3-8.31 10.3-7.81 19.03-7.13 8.65.72 15.7 2.65 20.83 4.33.15.07.36-.02.43-.31.52-3.04 2.14-11.11 2.61-13.87a.518.518 0 0 0-.42-.55c-10.54-2.85-20.15-4.66-31.63-4.45-21.53.37-31.53 9.04-32.8 27.15-.71 10.57 6.62 22.26 21.8 27.29 15.19 5.04 26.04 7.87 24.51 17.24-1.39 7.95-10.74 8.84-20.91 8.26-8.93-.54-16.41-2.67-22.05-4.36-.36-.12-.63.08-.71.44-.42 3.27-1.6 11.6-2 14.55-.01.39.28.71.47.74 7.01 1.68 19.51 4.04 34.7 4.04 20.68 0 31.37-8.86 32.59-25.83.94-13.18-5.26-22.91-21.97-28.3zM66.12 3.95H3.72a.59.59 0 0 0-.61.59v90.49c0 .33.24.6.61.6h20.73c.33 0 .59-.27.59-.6V61.16c0-.31.27-.6.61-.6h35.96c.35 0 .62-.24.62-.57v-14c0-.34-.27-.62-.62-.62H25.65a.6.6 0 0 1-.61-.61V19.75c0-.32.27-.6.61-.6h41c.34 0 .59-.26.59-.59l-.48-14.02c-.04-.3-.34-.59-.64-.59zm343.62-.07h-21.39c-.38 0-.6.26-.6.59v90.57c0 .32.23.56.6.56h21.39c.34 0 .58-.25.58-.56V4.47c0-.33-.25-.59-.58-.59zm92.54 76.28h-35.47c-.32 0-.6-.28-.6-.59l-.01-74.95c0-.37-.25-.61-.6-.61h-21.36c-.32 0-.61.23-.61.61v90.42c0 .32.29.55.61.55h57.33c.33 0 .62-.24.63-.55l.69-14.24c-.01-.37-.24-.64-.61-.64zM131.67 1.95c-28.07 0-43.39 18.41-43.39 48.1 0 29.66 15.32 48.09 43.39 48.09 28.06 0 43.36-18.43 43.36-48.09.01-30.12-14.9-48.1-43.36-48.1zm0 81.02c-19.06 0-21.7-15.83-21.7-32.91 0-17.06 2.64-32.9 21.7-32.9 19.04 0 21.66 15.82 21.66 32.9s-2.62 32.91-21.66 32.91z"/></svg>