<svg xmlns="http://www.w3.org/2000/svg" viewBox="0 0 1355.5 100"><path d="M471.8 43.8c5.4 3.4 9.9 7.2 12.6 12.8 8.3 17.2-1.9 35.8-21.3 38.8-2.7.4-5.5.6-8.2.6h-59.7V4c.6-.1 1.1-.2 1.7-.2 19.7 0 39.4 0 59.1.2 6.5.1 12.7 1.8 17.9 6.1 8.4 7 9.4 25.4-.9 32.7-.5.2-.7.5-1.2 1zm-62.4 38.5c.6.2.8.3 1.1.3 15.8 0 31.6.3 47.4 0 8.8-.2 14-6 14.3-14.8.3-8.5-4.7-14.2-13.4-15.3-1.4-.2-2.8-.2-4.2-.2h-42c-1 0-2 .1-3.1.1-.1 10.1-.1 20-.1 29.9zm.1-43.7c.8.1 1.3.2 1.7.2h41.2c1.8 0 3.6-.3 5.3-.7 5.1-1.3 7.7-4.7 7.8-9.8.1-5.3-2.4-8.8-7.6-10.2-2.1-.5-4.3-.8-6.4-.9-13.1-.1-26.1 0-39.2 0-.9 0-1.8.1-2.8.1v21.3zm236.9 44.1h-69.3c-2.3 0-3.1-.5-3.1-3 .1-7.8 0-15.7.1-23.6 0-.9.1-1.8.2-2.9h47.2V40.1h-44.4c-2.3 0-3.2-.5-3.1-3 .2-5.8 0-11.5.1-17.3 0-.9.1-1.8.2-2.9h71.9V3.7h-86.4v92.1h90.4V82.7h-3.8zM300.6 53.3V40.1H297c-13.4 0-26.9-.1-40.3.1-3 0-3.7-.9-3.6-3.7.2-4.4.1-8.9.1-13.3V17h72.3V3.7H239v92h90.4v-13h-72.3c-.8 0-1.6.2-2.2-.1-.7-.3-1.7-1.1-1.7-1.6-.1-9.1-.1-18.1-.1-27.7h47.5zm959.6-49.7h7.8c13.3.1 26.7-.3 40 .5 22 1.2 38.8 15.7 42.5 36.7 3 17.4-.7 33-15 44.8-8.1 6.7-17.8 9.9-28.1 10.2-15.7.5-31.4.1-47.3.1.1-.1.1-92.3.1-92.3zm14.4 13.7c-.1.2-.2.4-.2.5 0 21 0 42-.1 63 0 1.5.7 2 2.1 1.9 10.5-.1 21 .3 31.5-.6 12.8-1.1 22.7-7.6 26.8-20.3 4.3-13.4 2.3-25.8-8.2-36-5.2-5-11.7-8-18.8-8.4-11-.5-21.9-.1-33.1-.1zM705 85.2c14.3 8.5 29.8 13.1 46.5 13.7 9.6.3 18.9-.8 27.5-5.2 12-6.1 17.8-16.3 16.4-29.3-1.3-12.1-9-18.7-19.9-22.3-8.5-2.8-17.4-3-26.3-3.3-6.3-.2-12.6-.9-18.8-2-4.2-.7-7.5-3.3-8.1-8-.5-4.5 1.7-8.1 5.5-10 3.3-1.7 6.9-3.2 10.6-3.7 14.8-2.2 28.2 2.1 41 9.2 1.3.7 2.5 1.5 3.9 2.3 2.5-4.1 4.8-7.9 7.2-11.8-.8-.6-1.3-.9-1.8-1.3-14.4-8.7-30-12.8-46.8-12-8.2.4-16.1 2-23.2 6.7-8.9 5.9-12.4 14.2-10.8 24.7 1.5 9.5 8 14.5 16.7 16.3 7.6 1.5 15.3 2.3 23 2.8 7.6.5 15.3.3 22.7 2.9 5.3 1.9 9.3 5.1 10.1 11.1.8 5.9-1.6 10.5-6.2 14.1-4.2 3.3-9.2 4.9-14.4 5.5-15.6 1.8-29.9-2.5-43.6-9.7-1.9-1-3.7-2.1-5.6-3.3-2.4 4.1-4.7 8-7 12 .7 0 1 .3 1.4.6zm478.7 7.6v-86c0-.6.1-1.2 0-1.7-.2-.6-.8-1.4-1.2-1.4-4.2-.1-8.4-.1-13-.1v64.7c-1-1.1-1.4-1.5-1.8-2-17.8-19.6-35.6-39.2-53.2-59-3.3-3.8-6.7-4.2-11-3.4v91.9h14.2V32.2l.6-.4c.5.7.9 1.4 1.5 2 17.4 19.2 34.9 38.3 52.1 57.6 3.1 3.4 6.1 5.4 10.6 4.5.2 0 .4-.1 1.2-.2v-2.9zm-307-.3V63.6c0-1 .3-2.4.9-3 5.9-5.2 11.9-10.2 18-15.4.8 1 1.5 1.9 2.2 2.8 11.6 15.4 23.3 30.8 34.9 46.1.6.8 1.5 1.8 2.3 1.8 5 .2 9.9.1 15.4.1-15.1-20.1-29.7-39.7-44.5-59.4 12.8-10.8 25.4-21.5 38-32.2-6.1-.6-11.8-.6-17.5-.6-.8 0-1.7.6-2.4 1.2-12.3 10.2-24.5 20.5-36.8 30.8-3.4 2.8-6.8 5.6-10.7 8.9V4h-14.1v91.9h14.2c.1-1.3.1-2.4.1-3.4zM4 95.8h82.6V82.7H21.4c-2.5 0-3.4-.6-3.4-3.3.1-24 .1-48.1.1-72.1V3.7H4v92.1zM162.4 3.6h-14.2v92.6h14.2V3.6zm864-.1H1012v89.8c0 .4-.1.9 0 1.1.5.7 1.1 1.8 1.7 1.8 4.1.2 8.3.1 12.7.1V3.5z" fill="#707070"/></svg>