<svg width="241" height="100" fill="none" xmlns="http://www.w3.org/2000/svg"><path fill="#707070" d="M62.726 100H37.274l2.89-44.247L23.63 100H0L37.504 0h25.15l-2.901 44.854L76.599 0h23.642L62.726 100zm3.068 0L103.298 0h23.642L89.436 100H65.794zm91.896-6.67l-1.518-52.12 35.735-39.242-34.217 91.363zm76.191-76.662L240.237 0h-72.118l-24.762 29.997L154.79 0h-23.935l-37.2 100h23.642l15.883-41.818L134.269 100l72.526-.157 6.9-19.234h-27.578l9.056-24.238h22.731l6.994-18.637h-22.731l7.79-21.066h23.924z" /></svg>