<svg xmlns="http://www.w3.org/2000/svg" viewBox="0 0 594 100"><path fill="#707070" fill-rule="evenodd" clip-rule="evenodd" d="M36.5 13.7L3.2 25.6s.5 20.9 47.5 19.5c4.3 0 9 0 14.3-.5.5 2.4.5 4.8.5 6.7C66 75 66 95 66 95h22.3V48.9v-6.2c54.2-5.7 128.3-17.6 128.3-17.6s-87-1.4-131.7-2.4C83 14.1 80.1 6.1 75.4 1.8L54.1 7.1s2.9 5.7 6.2 14.3h-.5c-10.9-2-22.8-6.2-23.3-7.7zM153.9 47c17.1-2.4 20.9 22.8 17.6 40.4-1.4 7.6-5.2 6.7-10.9 7.6-11.9 1.4-2.4-17.6-14.3-6.2-9.5 9-30.9 10-33.3 9-2.4-1-19.5-8.1-8.6-28.5 9.1-16.1 39.1-20.9 49.5-22.3zm-27.5 12.4c7.1-3.8 12.8 0 19 10.5 2.8 4.8 2.8 10.9-2.4 15.2-5.2 4.3-11.9 1.4-12.8 1.4-1 0-9.5-8.6-10.5-12.4-1.4-4.3-.5-11.4 6.7-14.7zm65.1 29s-2.4-27.1-1-30.4c2.4-7.6 14.3-9.5 16.6-9.5 3.8-.5-.5 8.1 10.5 1.4 10.9-6.7 20.9-2.4 23.8 0 2.4 1.9 4.8 9 15.2-.5 10.5-9 21.4.5 25.7 4.3 4.3 4.3 10.9 19.5 9 33.7-1.4 10.5-13.8 9.5-18.1 0l-7.1-16.2c-5.2-10.9-19-11.4-15.2 4.8 5.2 20.9-16.6 27.6-19.5 8.6-1-5.2-1-11.9-5.2-19-7.1-10.5-17.1-1.9-16.2 7.1.5 5.7-.5 10.9-.5 12.4-1.4 12.4-10.5 10-13.8 9.5-3.7-.5-4.2-6.2-4.2-6.2zm166.3-45.2c-9.5.5-37.5 2.9-47.1 18.1-12.4 19.5 2.9 28.5 4.8 29.5 1.9 1.4 21.9 2.9 31.4-5.7 11.9-10 1.4 8.1 12.4 7.6 5.7-.5 9 1 10.9-6.7 4.8-17.6 3.8-43.3-12.4-42.8zm-28 10.9c6.2-2.9 12.8 2.4 16.6 11.9 1.9 4.3 1.4 9.5-2.9 12.8-4.8 3.3-9.5.5-10.5.5s-6.7-8.1-7.6-11.9c-.4-3.8-1.8-10.9 4.4-13.3zm62.7 7.6c1 5.7 1.4 18.1 1 22.8-.5 6.2-1.9 9 4.3 8.6 6.2-.5 12.4 1.4 14.7-18.1 2.4-19.5 5.2-16.2 15.7-16.6 10.9-.5 17.6-14.7 6.7-15.7-10.9-1.4-13.3 1.9-15.7 3.8-1.9 1.9-7.6 5.7-10 0-2.4-6.2-9-1-13.3.5-6.2 2.4-4.3 10-3.4 14.7zm69.9-49.4c7.1-.5 13.3 3.3 13.3 8.1 0 5.2-6.2 9.5-13.3 10-7.6.5-13.8-2.8-13.8-8.1 0-4.8 6.2-9.5 13.8-10zm-10 45.6s1 24.7.5 29c-.5 4.8-.5 5.7 4.3 5.7 5.2 0 14.3 0 14.7-15.2 0-15.2-1-28.5-1-28.5s.5-7.1-7.6-3.3c-10.4 5.2-11.3 4.3-10.9 12.3zm95.1 1c-18.1 1.4-16.6-6.2-22.3-7.6-5.2-1.4-20 11.9 5.2 14.7 2.9.5 5.2.5 8.1.9 18.5 1 25.7 1.4 25.7 10-.9 13.8-21.4 17.1-32.3 18.1-10.9 1-41.8-3.8-39.9-14.3 2.4-10.9 17.1-2.9 19.5-1 2.9 1.9 12.4 8.1 18.5 7.6 6.7-1 14.7-12.4.9-14.7-13.3-1.9-29.5 0-33.3-5.2-3.8-4.8-15.2-16.6 3.8-22.8 14.7-4.8 31.8-1.4 39.5-1 8.5.1 24.2 13.4 6.6 15.3zm29-43.7c-8.1 0-14.7 6.7-14.7 14.7 0 7.6 6.7 14.3 14.7 14.3 7.6 0 14.3-6.7 14.3-14.3 0-8.1-6.7-14.7-14.3-14.7zm0 2.3c-7.1 0-12.4 5.2-12.4 12.4 0 6.7 5.2 12.4 12.4 12.4 6.7 0 12.4-5.7 12.4-12.4 0-7.1-5.7-12.4-12.4-12.4zm-4.8 3.4h6.6c.5 0 1 .5 1.4.5 1 0 1.4.5 2.4 1.4.5.5 1 1.4 1 2.4 0 1.4-.5 2.4-1.4 2.9-1 1-2.8 1.4-5.2 1.9l7.6 7.1h-2.4l-7.1-7.1h-.9v7h-1.9V20.9h-.1zm3.8 7.6h-1.9v-6.2h2.4c1.4 0 2.4 0 3.3.5 1 .5 1.9 1.4 1.9 2.4s-.5 1.9-1.4 2.4c-.5.4-1.9.9-4.3.9z"/></svg>