<svg width="24" height="24" viewBox="0 0 24 24" fill="none" xmlns="http://www.w3.org/2000/svg">
<path d="M21.96 9.53981C20.325 7.52981 18.045 5.59481 15.045 3.83981L15.03 3.82481C12.03 2.11481 9.19496 1.10981 6.64496 0.704811C5.05496 0.449811 4.28996 0.749811 3.94496 0.959811C3.59996 1.15481 2.95496 1.66481 2.38496 3.16481C1.46996 5.57981 0.929963 8.53481 0.899963 11.9848V11.9998C0.914963 15.4648 1.46996 18.4198 2.38496 20.8348C2.95496 22.3498 3.59996 22.8448 3.94496 23.0548C4.28996 23.2498 5.05496 23.5648 6.64496 23.2948C9.19496 22.8898 12.03 21.8848 15.03 20.1598L15.045 20.1448C18.045 18.3898 20.325 16.4548 21.96 14.4448C22.98 13.1998 23.1 12.3898 23.1 11.9998C23.1 11.6098 22.98 10.7848 21.96 9.53981Z" fill="#FF5F00"/>
</svg>
